<?xml version="1.0" encoding="UTF-8" standalone="no"?>
<!DOCTYPE svg PUBLIC "-//W3C//DTD SVG 1.1//EN"
 "http://www.w3.org/Graphics/SVG/1.1/DTD/svg11.dtd">
<!-- Generated by graphviz version 14.0.4 (20251115.1723)
 -->
<!-- Title: Model_Acoustic Pages: 1 -->
<svg width="190pt" height="377pt"
 viewBox="0.00 0.00 190.00 377.00" xmlns="http://www.w3.org/2000/svg" xmlns:xlink="http://www.w3.org/1999/xlink">
<g id="graph0" class="graph" transform="scale(1 1) rotate(0) translate(4 373)">
<title>Model_Acoustic</title>
<polygon fill="white" stroke="none" points="-4,4 -4,-373 186,-373 186,4 -4,4"/>
<g id="clust1" class="cluster">
<title>cluster_inputs</title>
<polygon fill="none" stroke="black" stroke-dasharray="5,2" points="23,-284.5 23,-361 159,-361 159,-284.5 23,-284.5"/>
<text xml:space="preserve" text-anchor="middle" x="91" y="-343.7" font-family="Times,serif" font-size="14.00">Input</text>
</g>
<g id="clust2" class="cluster">
<title>cluster_processing</title>
<polygon fill="none" stroke="black" stroke-dasharray="1,5" points="8,-64 8,-212.5 174,-212.5 174,-64 8,-64"/>
<text xml:space="preserve" text-anchor="middle" x="91" y="-195.2" font-family="Times,serif" font-size="14.00">Feature Extraction</text>
</g>
<!-- audio -->
<g id="node1" class="node">
<title>audio</title>
<path fill="#e0e0e0" stroke="black" d="M139.12,-328.5C139.12,-328.5 42.88,-328.5 42.88,-328.5 36.88,-328.5 30.88,-322.5 30.88,-316.5 30.88,-316.5 30.88,-304.5 30.88,-304.5 30.88,-298.5 36.88,-292.5 42.88,-292.5 42.88,-292.5 139.12,-292.5 139.12,-292.5 145.12,-292.5 151.12,-298.5 151.12,-304.5 151.12,-304.5 151.12,-316.5 151.12,-316.5 151.12,-322.5 145.12,-328.5 139.12,-328.5"/>
<text xml:space="preserve" text-anchor="middle" x="91" y="-313.55" font-family="Arial" font-size="11.00">Raw Audio Waveform</text>
<text xml:space="preserve" text-anchor="middle" x="91" y="-300.05" font-family="Arial" font-size="11.00">(16kHz)</text>
</g>
<!-- w2v -->
<g id="node2" class="node">
<title>w2v</title>
<path fill="#add8e6" stroke="black" d="M133.88,-256.5C133.88,-256.5 48.12,-256.5 48.12,-256.5 42.12,-256.5 36.12,-250.5 36.12,-244.5 36.12,-244.5 36.12,-232.5 36.12,-232.5 36.12,-226.5 42.12,-220.5 48.12,-220.5 48.12,-220.5 133.88,-220.5 133.88,-220.5 139.88,-220.5 145.88,-226.5 145.88,-232.5 145.88,-232.5 145.88,-244.5 145.88,-244.5 145.88,-250.5 139.88,-256.5 133.88,-256.5"/>
<text xml:space="preserve" text-anchor="middle" x="91" y="-241.55" font-family="Arial" font-size="11.00">Wav2Vec 2.0 Large</text>
<text xml:space="preserve" text-anchor="middle" x="91" y="-228.05" font-family="Arial" font-size="11.00">(Frozen)</text>
</g>
<!-- audio&#45;&gt;w2v -->
<g id="edge1" class="edge">
<title>audio&#45;&gt;w2v</title>
<path fill="none" stroke="black" d="M91,-292.2C91,-284.91 91,-276.23 91,-268.04"/>
<polygon fill="black" stroke="black" points="94.5,-268.12 91,-258.12 87.5,-268.12 94.5,-268.12"/>
</g>
<!-- hidden_states -->
<g id="node3" class="node">
<title>hidden_states</title>
<path fill="#b0e0e6" stroke="black" d="M154.12,-180C154.12,-180 27.88,-180 27.88,-180 21.87,-180 15.88,-174 15.88,-168 15.88,-168 15.88,-156 15.88,-156 15.88,-150 21.88,-144 27.88,-144 27.88,-144 154.12,-144 154.12,-144 160.12,-144 166.12,-150 166.12,-156 166.12,-156 166.12,-168 166.12,-168 166.12,-174 160.12,-180 154.12,-180"/>
<text xml:space="preserve" text-anchor="middle" x="91" y="-165.05" font-family="Arial" font-size="11.00">Layer N Hidden States</text>
<text xml:space="preserve" text-anchor="middle" x="91" y="-151.55" font-family="Arial" font-size="11.00">(Sequence: Frames x 1024)</text>
</g>
<!-- w2v&#45;&gt;hidden_states -->
<g id="edge2" class="edge">
<title>w2v&#45;&gt;hidden_states</title>
<path fill="none" stroke="black" d="M91,-220.22C91,-211.82 91,-201.49 91,-191.93"/>
<polygon fill="black" stroke="black" points="94.5,-191.96 91,-181.96 87.5,-191.96 94.5,-191.96"/>
</g>
<!-- pooling -->
<g id="node4" class="node">
<title>pooling</title>
<path fill="#ffe4b5" stroke="black" d="M121.22,-108C121.22,-108 60.78,-108 60.78,-108 54.78,-108 44.93,-103.4 41.09,-98.79 41.09,-98.79 26.4,-81.21 26.4,-81.21 22.56,-76.6 24.71,-72 30.71,-72 30.71,-72 151.29,-72 151.29,-72 157.29,-72 159.44,-76.6 155.6,-81.21 155.6,-81.21 140.91,-98.79 140.91,-98.79 137.07,-103.4 127.22,-108 121.22,-108"/>
<text xml:space="preserve" text-anchor="middle" x="91" y="-86.3" font-family="Arial" font-size="11.00">Mean Pooling</text>
</g>
<!-- hidden_states&#45;&gt;pooling -->
<g id="edge3" class="edge">
<title>hidden_states&#45;&gt;pooling</title>
<path fill="none" stroke="black" d="M91,-143.7C91,-136.41 91,-127.73 91,-119.54"/>
<polygon fill="black" stroke="black" points="94.5,-119.62 91,-109.62 87.5,-119.62 94.5,-119.62"/>
</g>
<!-- classifier -->
<g id="node5" class="node">
<title>classifier</title>
<path fill="#ffdab9" stroke="black" d="M144.75,-36C144.75,-36 37.25,-36 37.25,-36 31.25,-36 25.25,-30 25.25,-24 25.25,-24 25.25,-12 25.25,-12 25.25,-6 31.25,0 37.25,0 37.25,0 144.75,0 144.75,0 150.75,0 156.75,-6 156.75,-12 156.75,-12 156.75,-24 156.75,-24 156.75,-30 150.75,-36 144.75,-36"/>
<text xml:space="preserve" text-anchor="middle" x="91" y="-21.05" font-family="Arial" font-size="11.00">Classifier</text>
<text xml:space="preserve" text-anchor="middle" x="91" y="-7.55" font-family="Arial" font-size="11.00">(Random Forest / SVM)</text>
</g>
<!-- pooling&#45;&gt;classifier -->
<g id="edge4" class="edge">
<title>pooling&#45;&gt;classifier</title>
<path fill="none" stroke="black" d="M91,-71.7C91,-64.41 91,-55.73 91,-47.54"/>
<polygon fill="black" stroke="black" points="94.5,-47.62 91,-37.62 87.5,-47.62 94.5,-47.62"/>
</g>
</g>
</svg>
